<svg width="164" height="152" viewBox="0 0 164 152" fill="none" xmlns="http://www.w3.org/2000/svg">
<path d="M68.4067 103.766C94.0679 97.7145 109.958 72.0328 103.899 46.4045C97.8397 20.7762 72.1251 4.90614 46.4638 10.9577C20.8026 17.0093 4.91207 42.6909 10.9714 68.3192C17.0308 93.9475 42.7454 109.818 68.4067 103.766Z" fill="#FBBC04" fill-opacity="0.75"/>
<path d="M103.071 151.619C69.4253 151.619 42 124.42 42 90.8804C42 57.3403 69.4253 30.001 103.071 30.001C136.716 30.001 164 57.3403 164 90.8804C164 124.42 136.716 151.619 103.071 151.619ZM103.071 31.4102C70.1321 31.4102 43.4137 58.045 43.4137 90.8804C43.4137 123.716 70.1321 150.35 103.071 150.35C136.009 150.35 162.728 123.716 162.728 90.8804C162.728 58.045 135.868 31.4102 103.071 31.4102Z" fill="#1A1A1A" fill-opacity="0.2"/>
</svg>
