<svg width="110" height="188" viewBox="0 0 110 188" fill="none" xmlns="http://www.w3.org/2000/svg">
<path d="M22.2404 87.9938C19.836 87.9938 18.0327 86.1919 18.0327 84.0897C18.0327 81.9875 19.836 80.1855 21.9398 80.1855C24.0436 80.1855 25.8469 81.9875 25.8469 84.0897C26.1475 86.1919 24.3442 87.9938 22.2404 87.9938ZM22.2404 107.815C20.1365 107.815 18.3333 106.013 18.3333 103.911C18.3333 101.809 20.1365 100.007 22.2404 100.007C24.3442 100.007 26.1475 101.809 26.1475 103.911C26.1475 106.313 24.3442 107.815 22.2404 107.815Z" fill="#34A853"/>
<path d="M43.8798 67.8718C41.7759 67.8718 39.9727 66.0699 39.9727 63.9676C39.9727 61.8654 41.7759 60.0635 43.8798 60.0635C45.9836 60.0635 47.7869 61.8654 47.7869 63.9676C47.7869 66.0699 45.9836 67.8718 43.8798 67.8718ZM43.8798 87.9932C41.7759 87.9932 39.9727 86.1913 39.9727 84.089C39.9727 81.9868 41.7759 80.1849 43.8798 80.1849C45.9836 80.1849 47.7869 81.9868 47.7869 84.089C47.7869 86.1913 45.9836 87.9932 43.8798 87.9932ZM43.8798 107.814C41.7759 107.814 39.9727 106.012 39.9727 103.91C39.9727 101.808 41.7759 100.006 43.8798 100.006C45.9836 100.006 47.7869 101.808 47.7869 103.91C47.7869 106.313 45.9836 107.814 43.8798 107.814ZM43.8798 127.936C41.7759 127.936 39.9727 126.134 39.9727 124.032C39.9727 121.929 41.7759 120.127 43.8798 120.127C45.9836 120.127 47.7869 121.929 47.7869 124.032C47.7869 126.134 45.9836 127.936 43.8798 127.936Z" fill="#34A853"/>
<path d="M64.6173 47.7507C62.5135 47.7507 60.7102 45.9488 60.7102 43.8465C60.7102 41.7443 62.5135 39.9424 64.6173 39.9424C66.7211 39.9424 68.5244 41.7443 68.5244 43.8465C68.5244 46.2491 67.0217 47.7507 64.6173 47.7507ZM64.6173 67.8721C62.5135 67.8721 60.7102 66.0702 60.7102 63.9679C60.7102 61.8657 62.5135 60.0638 64.6173 60.0638C66.7211 60.0638 68.5244 61.8657 68.5244 63.9679C68.5244 66.0702 67.0217 67.8721 64.6173 67.8721ZM64.6173 87.9935C62.5135 87.9935 60.7102 86.1916 60.7102 84.0894C60.7102 81.9871 62.5135 80.1852 64.6173 80.1852C66.7211 80.1852 68.5244 81.9871 68.5244 84.0894C68.5244 86.1916 67.0217 87.9935 64.6173 87.9935ZM64.6173 107.815C62.5135 107.815 60.7102 106.013 60.7102 103.91C60.7102 101.808 62.5135 100.006 64.6173 100.006C66.7211 100.006 68.5244 101.808 68.5244 103.91C68.5244 106.313 67.0217 107.815 64.6173 107.815ZM64.6173 127.936C62.5135 127.936 60.7102 126.134 60.7102 124.032C60.7102 121.93 62.5135 120.128 64.6173 120.128C66.7211 120.128 68.5244 121.93 68.5244 124.032C68.5244 126.134 67.0217 127.936 64.6173 127.936ZM64.6173 148.057C62.5135 148.057 60.7102 146.256 60.7102 144.153C60.7102 142.051 62.5135 140.249 64.6173 140.249C66.7211 140.249 68.5244 142.051 68.5244 144.153C68.5244 146.256 67.0217 148.057 64.6173 148.057Z" fill="#34A853"/>
<path d="M86.2567 27.9304C84.1529 27.9304 82.3496 26.1285 82.3496 24.0262C82.3496 21.924 84.1529 20.1221 86.2567 20.1221C88.3605 20.1221 90.1638 21.924 90.1638 24.0262C90.4644 26.1285 88.6611 27.9304 86.2567 27.9304ZM86.2567 47.7515C84.1529 47.7515 82.3496 45.9495 82.3496 43.8473C82.3496 41.7451 84.1529 39.9432 86.2567 39.9432C88.3605 39.9432 90.1638 41.7451 90.1638 43.8473C90.4644 46.2499 88.6611 47.7515 86.2567 47.7515ZM86.2567 67.8729C84.1529 67.8729 82.3496 66.0709 82.3496 63.9687C82.3496 61.8665 84.1529 60.0646 86.2567 60.0646C88.3605 60.0646 90.1638 61.8665 90.1638 63.9687C90.4644 66.0709 88.6611 67.8729 86.2567 67.8729ZM86.2567 87.9943C84.1529 87.9943 82.3496 86.1924 82.3496 84.0901C82.3496 81.9879 84.1529 80.186 86.2567 80.186C88.3605 80.186 90.1638 81.9879 90.1638 84.0901C90.4644 86.1924 88.6611 87.9943 86.2567 87.9943ZM86.2567 107.815C84.1529 107.815 82.3496 106.013 82.3496 103.911C82.3496 101.809 84.1529 100.007 86.2567 100.007C88.3605 100.007 90.1638 101.809 90.1638 103.911C90.4644 106.314 88.6611 107.815 86.2567 107.815ZM86.2567 127.937C84.1529 127.937 82.3496 126.135 82.3496 124.033C82.3496 121.93 84.1529 120.128 86.2567 120.128C88.3605 120.128 90.1638 121.93 90.1638 124.033C90.4644 126.135 88.6611 127.937 86.2567 127.937ZM86.2567 148.058C84.1529 148.058 82.3496 146.256 82.3496 144.154C82.3496 142.052 84.1529 140.25 86.2567 140.25C88.3605 140.25 90.1638 142.052 90.1638 144.154C90.4644 146.256 88.6611 148.058 86.2567 148.058ZM86.2567 167.879C84.1529 167.879 82.3496 166.077 82.3496 163.975C82.3496 161.873 84.1529 160.071 86.2567 160.071C88.3605 160.071 90.1638 161.873 90.1638 163.975C90.4644 166.378 88.6611 167.879 86.2567 167.879Z" fill="#34A853"/>
<path d="M106.093 7.80831C103.989 7.80831 102.186 6.00639 102.186 3.90415C102.186 1.80192 103.989 0 106.093 0C108.197 0 110 1.80192 110 3.90415C110 6.00639 108.197 7.80831 106.093 7.80831ZM106.093 27.9297C103.989 27.9297 102.186 26.1278 102.186 24.0256C102.186 21.9233 103.989 20.1214 106.093 20.1214C108.197 20.1214 110 21.9233 110 24.0256C110 26.1278 108.197 27.9297 106.093 27.9297ZM106.093 47.7508C103.989 47.7508 102.186 45.9489 102.186 43.8466C102.186 41.7444 103.989 39.9425 106.093 39.9425C108.197 39.9425 110 41.7444 110 43.8466C110 46.2492 108.197 47.7508 106.093 47.7508ZM106.093 67.8722C103.989 67.8722 102.186 66.0703 102.186 63.9681C102.186 61.8658 103.989 60.0639 106.093 60.0639C108.197 60.0639 110 61.8658 110 63.9681C110 66.0703 108.197 67.8722 106.093 67.8722ZM106.093 87.9936C103.989 87.9936 102.186 86.1917 102.186 84.0895C102.186 81.9872 103.989 80.1853 106.093 80.1853C108.197 80.1853 110 81.9872 110 84.0895C110 86.1917 108.197 87.9936 106.093 87.9936ZM106.093 107.815C103.989 107.815 102.186 106.013 102.186 103.911C102.186 101.808 103.989 100.006 106.093 100.006C108.197 100.006 110 101.808 110 103.911C110 106.313 108.197 107.815 106.093 107.815ZM106.093 127.936C103.989 127.936 102.186 126.134 102.186 124.032C102.186 121.93 103.989 120.128 106.093 120.128C108.197 120.128 110 121.93 110 124.032C110 126.134 108.197 127.936 106.093 127.936ZM106.093 148.058C103.989 148.058 102.186 146.256 102.186 144.153C102.186 142.051 103.989 140.249 106.093 140.249C108.197 140.249 110 142.051 110 144.153C110 146.256 108.197 148.058 106.093 148.058ZM106.093 167.879C103.989 167.879 102.186 166.077 102.186 163.974C102.186 161.872 103.989 160.07 106.093 160.07C108.197 160.07 110 161.872 110 163.974C110 166.377 108.197 167.879 106.093 167.879ZM106.093 188C103.989 188 102.186 186.198 102.186 184.096C102.186 181.994 103.989 180.192 106.093 180.192C108.197 180.192 110 181.994 110 184.096C110 186.198 108.197 188 106.093 188Z" fill="#34A853"/>
<path d="M3.9071 97.904C1.80328 97.904 0 96.1021 0 93.9999C0 91.8976 1.80328 90.0957 3.9071 90.0957C6.01093 90.0957 7.81421 91.8976 7.81421 93.9999C7.81421 96.1021 6.01093 97.904 3.9071 97.904Z" fill="#34A853"/>
</svg>
