<svg width="1440" height="317" viewBox="0 0 1440 317" fill="none" xmlns="http://www.w3.org/2000/svg">
<path fill-rule="evenodd" clip-rule="evenodd" d="M3.55026e-06 176.021L60 152.388C120 129.571 240 82.3059 360 76.6015C480 70.8972 600 105.938 720 117.347C840 129.571 960 117.347 1080 93.7146C1200 70.8972 1320 35.0411 1380 17.928L1440 -2.90442e-05L1440 317L1380 317C1320 317 1200 317 1080 317C960 317 840 317 720 317C600 317 480 317 360 317C240 317 120 317 60 317L6.39375e-06 317L3.55026e-06 176.021Z" fill="#4285F4"/>
</svg>
