<svg width="221" height="221" viewBox="0 0 221 221" fill="none" xmlns="http://www.w3.org/2000/svg">
<path d="M110.5 203.804C58.912 203.804 16.8774 162.088 16.8774 110.5C16.8774 58.9125 58.912 16.8779 110.5 16.8779C162.088 16.8779 203.804 58.9125 203.804 110.5C203.804 162.088 162.088 203.804 110.5 203.804ZM110.5 20.0624C60.8227 20.0624 20.0619 60.8232 20.0619 110.5C20.0619 160.178 60.8227 200.62 110.5 200.62C160.177 200.62 200.62 160.178 200.62 110.5C200.62 60.8232 160.177 20.0624 110.5 20.0624Z" fill="#1A1A1A" fill-opacity="0.06"/>
<path d="M110.5 189.156C67.1917 189.156 31.8445 153.809 31.8445 110.5C31.8445 67.192 67.1917 31.8447 110.5 31.8447C153.808 31.8447 189.156 67.192 189.156 110.5C189.156 153.809 153.808 189.156 110.5 189.156ZM110.5 35.0292C68.784 35.0292 35.0289 68.7842 35.0289 110.5C35.0289 152.216 68.784 185.972 110.5 185.972C152.216 185.972 185.971 152.216 185.971 110.5C185.971 68.7842 152.216 35.0292 110.5 35.0292Z" fill="#FFAE0A" fill-opacity="0.21"/>
<path d="M110.5 170.686C77.3819 170.686 50.3142 143.618 50.3142 110.5C50.3142 77.3822 77.3819 50.3145 110.5 50.3145C143.618 50.3145 170.686 77.3822 170.686 110.5C170.686 143.618 143.618 170.686 110.5 170.686ZM110.5 53.4989C78.9742 53.4989 53.4986 78.9744 53.4986 110.5C53.4986 142.026 78.9742 167.502 110.5 167.502C142.026 167.502 167.502 142.026 167.502 110.5C167.502 78.9744 141.708 53.4989 110.5 53.4989Z" fill="#FFAE0A" fill-opacity="0.21"/>
<path d="M110.5 221C49.6772 221 0 171.323 0 110.5C0 49.6772 49.6772 0 110.5 0C171.323 0 221 49.6772 221 110.5C221 171.323 171.323 221 110.5 221ZM110.5 3.18444C51.2695 3.18444 3.18444 51.2695 3.18444 110.5C3.18444 169.731 51.2695 217.816 110.5 217.816C169.731 217.816 217.816 169.731 217.816 110.5C217.816 51.2695 169.731 3.18444 110.5 3.18444Z" fill="#FFAE0A" fill-opacity="0.97"/>
</svg>
