<svg width="62" height="82" viewBox="0 0 62 82" fill="none" xmlns="http://www.w3.org/2000/svg">
<path d="M0 0V30.4473H30.3955V0H0ZM25.5599 25.6034H4.66295V4.67089H25.5599V25.6034Z" fill="#1A1A1A"/>
<path d="M47.8384 82.0002C40.0669 82.0002 33.6769 75.5994 33.6769 67.8146C33.6769 60.0298 40.0669 53.6289 47.8384 53.6289C55.61 53.6289 62 60.0298 62 67.8146C62 75.5994 55.61 82.0002 47.8384 82.0002ZM47.8384 55.3589C40.9304 55.3589 35.4039 60.8947 35.4039 67.8146C35.4039 74.7344 40.9304 80.2703 47.8384 80.2703C54.7465 80.2703 60.273 74.7344 60.273 67.8146C60.273 60.8947 54.7465 55.3589 47.8384 55.3589Z" fill="#1A1A1A"/>
<path d="M32.4679 68.8527C18.6517 68.8527 7.25342 57.6079 7.25342 43.5953C7.25342 29.7556 18.479 18.3379 32.4679 18.3379C46.2841 18.3379 57.6824 29.5826 57.6824 43.5953C57.5097 57.6079 46.2841 68.8527 32.4679 68.8527ZM32.4679 20.2408C19.5153 20.2408 8.98044 30.7936 8.98044 43.7683C8.98044 56.743 19.5153 67.2957 32.4679 67.2957C45.4205 67.2957 55.9554 56.743 55.9554 43.7683C55.7827 30.7936 45.2478 20.2408 32.4679 20.2408Z" fill="#FFAE0A"/>
<path d="M10.1895 50.6874C10.1895 51.8984 9.15326 52.9364 7.94434 52.9364C6.73543 52.9364 5.69922 51.8984 5.69922 50.6874C5.69922 49.4765 6.73543 48.4385 7.94434 48.4385C9.15326 48.4385 10.1895 49.4765 10.1895 50.6874Z" fill="#FFAE0A"/>
</svg>
