<svg width="146" height="146" viewBox="0 0 146 146" fill="none" xmlns="http://www.w3.org/2000/svg">
<path d="M97.0311 3.33195C91.5901 2.72614 86.1491 2.12033 81.3126 7.26971C76.1739 12.4191 76.7785 17.8714 77.383 23.0207C77.9876 28.1701 78.2899 33.0166 74.058 37.2573C69.8261 41.4979 64.9896 41.195 59.8509 40.5892C54.4099 39.9834 48.9689 39.3776 44.1325 44.527C38.9938 49.6763 39.5983 55.1286 40.2029 60.278C40.8075 65.4274 41.1097 70.2739 36.8778 74.5145C32.646 78.7552 27.8095 78.4523 22.6708 77.8465C17.2298 77.2407 11.7888 76.6348 6.95238 81.7842C1.81366 86.9336 2.41822 92.3859 3.02277 97.5353C3.02277 102.685 3.62733 107.228 0 111.469L1.51139 112.983C5.74327 108.137 5.13872 102.988 4.83644 97.8382C4.23188 92.6888 3.92961 87.8423 8.16149 83.6017C12.3934 79.361 17.2298 79.6639 22.3685 80.2697C27.8095 80.8755 33.2505 81.4813 38.087 76.3319C43.2257 71.1826 42.6211 65.7303 42.0166 60.5809C41.412 55.4315 41.1097 50.5851 45.3416 46.3444C49.5735 42.1037 54.4099 42.4066 59.5487 43.0124C64.9897 43.6183 70.4306 44.2241 75.2671 39.0747C80.4058 33.9253 79.8012 28.473 79.1967 23.3237C78.5921 18.1743 78.2899 13.3278 82.5217 9.08714C86.7536 4.84647 91.5901 5.14938 96.7288 5.75519C102.17 6.361 107.611 6.9668 112.447 1.81743L111.238 0C107.006 4.24066 102.17 3.93776 97.0311 3.33195Z" fill="#FBBC04" fill-opacity="0.75"/>
<path d="M113.052 19.3866C107.611 18.7808 102.17 18.175 97.3334 23.3244C92.1947 28.4738 92.7992 33.9261 93.4038 39.0754C94.0083 44.2248 94.3106 49.0713 90.0787 53.3119C85.8468 57.5526 81.0104 57.2497 75.8717 56.6439C70.4307 56.0381 64.9897 55.4323 60.1533 60.5816C55.0145 65.731 55.6191 71.1833 56.2237 76.3327C56.8282 81.4821 57.1305 86.3285 52.8986 90.5692C48.6667 94.8099 43.8303 94.507 38.6916 93.9011C33.2506 93.9011 27.8096 93.2953 22.6709 98.1418C17.5321 103.291 18.1367 108.743 18.7412 113.893C19.3458 118.739 19.6481 123.283 16.0208 127.221L17.5321 128.735C21.764 123.889 21.1595 118.739 20.8572 113.59C20.2526 108.441 19.9504 103.594 24.1822 99.3534C28.4141 95.1128 33.2506 95.4157 38.3893 96.0215C43.8303 96.6273 49.2713 97.2331 54.1077 92.0837C59.2464 86.9343 58.6419 81.4821 58.0373 76.3327C57.4328 71.1833 57.1305 66.3368 61.3624 62.0962C65.5942 57.8555 70.4307 58.1584 75.5694 58.7642C81.0104 59.37 86.4514 59.9758 91.2878 54.8265C96.4266 49.6771 95.822 44.2248 95.2174 39.0754C94.6129 33.9261 94.3106 29.0796 98.5425 24.8389C102.774 20.5983 107.611 20.9012 112.75 21.507C118.191 22.1128 123.632 22.7186 128.468 17.5692L126.957 16.0547C123.027 20.5983 118.191 19.9924 113.052 19.3866Z" fill="#FBBC04" fill-opacity="0.75"/>
<path d="M130.282 36.6523C124.841 36.0465 119.4 35.4406 114.563 40.59C109.424 45.7394 110.029 51.1917 110.633 56.3411C111.238 61.4904 111.54 66.3369 107.308 70.5776C103.077 74.8182 98.2401 74.5153 93.1014 73.9095C87.6604 73.3037 82.2194 72.6979 77.383 77.8473C72.2442 82.9967 72.8488 88.4489 73.4534 93.5983C74.0579 98.7477 74.3602 103.594 70.1283 107.835C65.8964 112.075 61.06 111.773 55.9213 111.167C50.4803 110.561 45.0393 109.955 40.2028 115.105C35.0641 120.254 35.6687 125.706 36.2732 130.856C36.8778 135.702 37.1801 140.246 33.5527 144.183L35.0641 145.698C39.296 140.851 38.6914 135.702 38.3892 130.553C37.7846 125.403 37.4823 120.557 41.7142 116.316C45.9461 112.075 50.7825 112.378 55.9213 112.984C61.3623 113.59 66.8033 114.196 71.6397 109.046C76.7784 103.897 76.1739 98.4448 75.5693 93.2954C74.9647 88.146 74.6625 83.2996 78.8943 79.0589C83.1262 74.8182 87.9627 75.1211 93.1014 75.7269C98.5424 76.3328 103.983 76.9386 108.82 71.7892C113.959 66.6398 113.354 61.1875 112.749 56.0382C112.145 50.8888 111.843 46.0423 116.074 41.8016C120.306 37.561 125.143 37.8639 130.282 38.4697C135.722 39.0755 141.163 39.3784 146 34.5319L144.489 33.3203C140.257 37.561 135.42 37.2581 130.282 36.6523Z" fill="#FBBC04" fill-opacity="0.75"/>
</svg>
