<svg width="141" height="165" viewBox="0 0 141 165" fill="none" xmlns="http://www.w3.org/2000/svg">
<g clip-path="url(#clip0)">
<path d="M89.2933 98.5005C90.5112 99.9369 92.2326 100.071 93.1751 98.97C94.1177 97.8693 94.0121 95.8485 92.9463 94.5916C91.8806 93.3348 90.1593 93.201 89.2167 94.3017C88.122 95.2228 88.2275 97.2436 89.2933 98.5005ZM80.4065 108.879C81.4722 110.135 83.1936 110.269 84.1361 109.169C85.0786 108.068 84.9731 106.047 83.9073 104.79C82.8416 103.533 81.1203 103.4 80.1777 104.5C79.1005 105.758 79.3408 107.622 80.4065 108.879Z" fill="#1A1A1A"/>
<path d="M87.3532 75.0374C88.4189 76.2943 90.1403 76.4281 91.0828 75.3274C92.0254 74.2267 91.9198 72.2059 90.8541 70.9491C89.7883 69.6922 88.067 69.5584 87.1244 70.6591C86.1819 71.7598 86.2875 73.7806 87.3532 75.0374ZM78.3318 85.5729C79.3975 86.8297 81.1189 86.9635 82.0614 85.8628C83.004 84.7621 82.8984 82.7413 81.8327 81.4845C80.7669 80.2276 79.0456 80.0938 78.103 81.1945C77.1605 82.2952 77.2661 84.316 78.3318 85.5729ZM69.445 95.9511C70.5108 97.2079 72.2321 97.3417 73.1747 96.241C74.1172 95.1403 74.0116 93.1195 72.9459 91.8627C71.8802 90.6058 70.1588 90.472 69.2163 91.5727C68.1391 92.8307 68.3793 94.6942 69.445 95.9511ZM60.4236 106.486C61.4894 107.743 63.2107 107.877 64.1533 106.776C65.0958 105.676 64.9902 103.655 63.9245 102.398C62.8588 101.141 61.1374 101.007 60.1949 102.108C59.2523 103.209 59.3579 105.23 60.4236 106.486Z" fill="#1A1A1A"/>
<path d="M85.8698 52.1126C86.9355 53.3695 88.6569 53.5033 89.5994 52.4026C90.542 51.3019 90.4364 49.2811 89.3707 48.0243C88.3049 46.7674 86.5836 46.6336 85.6411 47.7343C84.5639 48.9923 84.6519 50.6762 85.8698 52.1126ZM76.8484 62.6481C77.9141 63.9049 79.6355 64.0387 80.578 62.938C81.5206 61.8373 81.415 59.8165 80.3493 58.5597C79.2835 57.3028 77.5622 57.169 76.6196 58.2697C75.6771 59.3704 75.6304 61.2117 76.8484 62.6481ZM67.827 73.1835C68.8927 74.4403 70.6141 74.5742 71.5566 73.4734C72.4992 72.3727 72.3936 70.352 71.3278 69.0951C70.2621 67.8383 68.5408 67.7044 67.5982 68.8052C66.6557 69.9059 66.609 71.7471 67.827 73.1835ZM58.9402 83.5617C60.006 84.8185 61.7273 84.9523 62.6699 83.8516C63.6124 82.7509 63.5068 80.7301 62.4411 79.4733C61.3754 78.2165 59.654 78.0826 58.7115 79.1833C57.6343 80.4413 57.7223 82.1253 58.9402 83.5617ZM49.9188 94.0971C50.9846 95.3539 52.7059 95.4878 53.6484 94.3871C54.591 93.2863 54.4854 91.2656 53.4197 90.0087C52.354 88.7519 50.6326 88.6181 49.6901 89.7188C48.7475 90.8195 48.7009 92.6607 49.9188 94.0971ZM40.8974 104.633C41.9632 105.889 43.6845 106.023 44.627 104.922C45.5696 103.822 45.464 101.801 44.3983 100.544C43.3326 99.2873 41.6112 99.1535 40.6687 100.254C39.7261 101.355 39.6795 103.196 40.8974 104.633Z" fill="#1A1A1A"/>
<path d="M83.7946 28.8079C84.8603 30.0648 86.5817 30.1986 87.5242 29.0979C88.4668 27.9972 88.3612 25.9764 87.2955 24.7196C86.2297 23.4627 84.5084 23.3289 83.5659 24.4296C82.4711 25.3508 82.5767 27.3715 83.7946 28.8079ZM74.9079 39.1861C75.9736 40.443 77.6949 40.5768 78.6375 39.4761C79.58 38.3754 79.4744 36.3546 78.4087 35.0977C77.343 33.8409 75.6216 33.7071 74.6791 34.8078C73.4497 35.8862 73.6899 37.7497 74.9079 39.1861ZM65.8865 49.7216C66.9522 50.9784 68.6735 51.1122 69.6161 50.0115C70.5586 48.9108 70.453 46.89 69.3873 45.6332C68.3216 44.3763 66.6002 44.2425 65.6577 45.3432C64.5629 46.2644 64.6685 48.2852 65.8865 49.7216ZM56.8651 60.257C57.9308 61.5138 59.6521 61.6477 60.5947 60.5469C61.5372 59.4462 61.4316 57.4255 60.3659 56.1686C59.3002 54.9118 57.5788 54.7779 56.6363 55.8786C55.5415 56.7998 55.6471 58.8206 56.8651 60.257ZM47.9783 70.6352C49.044 71.892 50.7654 72.0258 51.7079 70.9251C52.6504 69.8244 52.5449 67.8036 51.4791 66.5468C50.4134 65.2899 48.6921 65.1561 47.7495 66.2568C46.5201 67.3352 46.7603 69.1988 47.9783 70.6352ZM38.9569 81.1706C40.0226 82.4274 41.744 82.5613 42.6865 81.4605C43.629 80.3598 43.5234 78.3391 42.4577 77.0822C41.392 75.8254 39.6707 75.6915 38.7281 76.7923C37.6333 77.7134 37.7389 79.7342 38.9569 81.1706ZM29.9355 91.706C31.0012 92.9629 32.7226 93.0967 33.6651 91.996C34.6076 90.8953 34.502 88.8745 33.4363 87.6176C32.3706 86.3608 30.6492 86.227 29.7067 87.3277C28.6119 88.2489 28.7175 90.2696 29.9355 91.706ZM21.0487 102.084C22.1144 103.341 23.8358 103.475 24.7783 102.374C25.7209 101.273 25.6153 99.2527 24.5496 97.9958C23.4839 96.739 21.7625 96.6052 20.82 97.7059C19.5905 98.7843 19.8308 100.648 21.0487 102.084Z" fill="#1A1A1A"/>
<path d="M82.768 6.4222C83.8337 7.67905 85.5551 7.81287 86.4976 6.71216C87.4402 5.61144 87.3346 3.59067 86.2689 2.33383C85.2031 1.07698 83.4818 0.943157 82.5392 2.04387C81.5967 3.14459 81.7023 5.16536 82.768 6.4222ZM73.7466 16.9576C74.8123 18.2145 76.5337 18.3483 77.4762 17.2476C78.4188 16.1469 78.3132 14.1261 77.2475 12.8693C76.1817 11.6124 74.4604 11.4786 73.5178 12.5793C72.5753 13.68 72.6809 15.7008 73.7466 16.9576ZM64.8599 27.3358C65.9256 28.5927 67.6469 28.7265 68.5895 27.6258C69.532 26.5251 69.4264 24.5043 68.3607 23.2474C67.295 21.9906 65.5736 21.8568 64.6311 22.9575C63.5539 24.2154 63.7941 26.079 64.8599 27.3358ZM55.8384 37.8712C56.9042 39.1281 58.6255 39.2619 59.5681 38.1612C60.5106 37.0605 60.405 35.0397 59.3393 33.7829C58.2736 32.526 56.5522 32.3922 55.6097 33.4929C54.6671 34.5936 54.7727 36.6144 55.8384 37.8712ZM46.817 48.4067C47.8828 49.6635 49.6041 49.7973 50.5466 48.6966C51.4892 47.5959 51.3836 45.5751 50.3179 44.3183C49.2522 43.0615 47.5308 42.9276 46.5883 44.0283C45.6457 45.1291 45.7513 47.1498 46.817 48.4067ZM37.9303 58.7849C38.996 60.0417 40.7174 60.1755 41.6599 59.0748C42.6024 57.9741 42.4968 55.9533 41.4311 54.6965C40.3654 53.4396 38.6441 53.3058 37.7015 54.4065C36.6243 55.6645 36.8646 57.528 37.9303 58.7849ZM28.9089 69.3203C29.9746 70.5771 31.6959 70.7109 32.6385 69.6102C33.581 68.5095 33.4754 66.4887 32.4097 65.2319C31.344 63.9751 29.6226 63.8412 28.6801 64.942C27.7376 66.0427 27.8432 68.0634 28.9089 69.3203ZM19.8875 79.8557C20.9532 81.1126 22.6745 81.2464 23.6171 80.1457C24.5596 79.0449 24.454 77.0242 23.3883 75.7673C22.3226 74.5105 20.6012 74.3767 19.6587 75.4774C18.7162 76.5781 18.8217 78.5989 19.8875 79.8557ZM11.0007 90.2339C12.0664 91.4907 13.7878 91.6246 14.7303 90.5238C15.6729 89.4231 15.5673 87.4024 14.5016 86.1455C13.4358 84.8887 11.7145 84.7548 10.7719 85.8556C9.69476 87.1135 9.93499 88.977 11.0007 90.2339ZM1.9793 100.769C3.04502 102.026 4.76638 102.16 5.70891 101.059C6.65145 99.9586 6.54586 97.9378 5.48015 96.6809C4.41443 95.4241 2.69307 95.2903 1.75053 96.391C0.808005 97.4917 0.913583 99.5125 1.9793 100.769Z" fill="#1A1A1A"/>
<path d="M94.1369 114.643C95.2026 115.9 96.924 116.034 97.8665 114.933C98.8091 113.832 98.7035 111.811 97.6378 110.555C96.572 109.298 94.8507 109.164 93.9081 110.265C92.9656 111.365 93.0712 113.386 94.1369 114.643Z" fill="#1A1A1A"/>
</g>
<defs>
<clipPath id="clip0">
<rect width="86.1592" height="129.593" fill="white" transform="matrix(-0.646731 -0.762718 -0.650419 0.759576 140.011 65.7148)"/>
</clipPath>
</defs>
</svg>
