<svg width="115" height="200" viewBox="0 0 115 200" fill="none" xmlns="http://www.w3.org/2000/svg">
<path d="M91.3443 93.6104C93.9017 93.6104 95.8197 91.6935 95.8197 89.4571C95.8197 87.2206 93.9017 85.3037 91.664 85.3037C89.4263 85.3037 87.5082 87.2206 87.5082 89.4571C87.1886 91.6935 89.1066 93.6104 91.3443 93.6104ZM91.3443 114.697C93.582 114.697 95.5 112.78 95.5 110.543C95.5 108.307 93.582 106.39 91.3443 106.39C89.1066 106.39 87.1886 108.307 87.1886 110.543C87.1886 113.099 89.1066 114.697 91.3443 114.697Z" fill="#34A853"/>
<path d="M68.3279 72.2042C70.5656 72.2042 72.4836 70.2872 72.4836 68.0508C72.4836 65.8144 70.5656 63.8975 68.3279 63.8975C66.0902 63.8975 64.1722 65.8144 64.1722 68.0508C64.1722 70.2872 66.0902 72.2042 68.3279 72.2042ZM68.3279 93.6099C70.5656 93.6099 72.4836 91.693 72.4836 89.4566C72.4836 87.2201 70.5656 85.3032 68.3279 85.3032C66.0902 85.3032 64.1722 87.2201 64.1722 89.4566C64.1722 91.693 66.0902 93.6099 68.3279 93.6099ZM68.3279 114.696C70.5656 114.696 72.4836 112.779 72.4836 110.543C72.4836 108.306 70.5656 106.389 68.3279 106.389C66.0902 106.389 64.1722 108.306 64.1722 110.543C64.1722 113.099 66.0902 114.696 68.3279 114.696ZM68.3279 136.102C70.5656 136.102 72.4836 134.185 72.4836 131.949C72.4836 129.712 70.5656 127.795 68.3279 127.795C66.0902 127.795 64.1722 129.712 64.1722 131.949C64.1722 134.185 66.0902 136.102 68.3279 136.102Z" fill="#34A853"/>
<path d="M46.2705 50.7979C48.5082 50.7979 50.4263 48.881 50.4263 46.6446C50.4263 44.4081 48.5082 42.4912 46.2705 42.4912C44.0328 42.4912 42.1148 44.4081 42.1148 46.6446C42.1148 49.2005 43.7132 50.7979 46.2705 50.7979ZM46.2705 72.2037C48.5082 72.2037 50.4263 70.2867 50.4263 68.0503C50.4263 65.8139 48.5082 63.897 46.2705 63.897C44.0328 63.897 42.1148 65.8139 42.1148 68.0503C42.1148 70.2867 43.7132 72.2037 46.2705 72.2037ZM46.2705 93.6094C48.5082 93.6094 50.4263 91.6925 50.4263 89.4561C50.4263 87.2197 48.5082 85.3027 46.2705 85.3027C44.0328 85.3027 42.1148 87.2197 42.1148 89.4561C42.1148 91.6925 43.7132 93.6094 46.2705 93.6094ZM46.2705 114.696C48.5082 114.696 50.4263 112.779 50.4263 110.542C50.4263 108.306 48.5082 106.389 46.2705 106.389C44.0328 106.389 42.1148 108.306 42.1148 110.542C42.1148 113.098 43.7132 114.696 46.2705 114.696ZM46.2705 136.101C48.5082 136.101 50.4263 134.185 50.4263 131.948C50.4263 129.712 48.5082 127.795 46.2705 127.795C44.0328 127.795 42.1148 129.712 42.1148 131.948C42.1148 134.185 43.7132 136.101 46.2705 136.101ZM46.2705 157.507C48.5082 157.507 50.4263 155.59 50.4263 153.354C50.4263 151.117 48.5082 149.201 46.2705 149.201C44.0328 149.201 42.1148 151.117 42.1148 153.354C42.1148 155.59 43.7132 157.507 46.2705 157.507Z" fill="#34A853"/>
<path d="M23.2542 29.713C25.4919 29.713 27.4099 27.796 27.4099 25.5596C27.4099 23.3232 25.4919 21.4062 23.2542 21.4062C21.0165 21.4062 19.0984 23.3232 19.0984 25.5596C18.7788 27.796 20.6968 29.713 23.2542 29.713ZM23.2542 50.7992C25.4919 50.7992 27.4099 48.8823 27.4099 46.6459C27.4099 44.4094 25.4919 42.4925 23.2542 42.4925C21.0165 42.4925 19.0984 44.4094 19.0984 46.6459C18.7788 49.2018 20.6968 50.7992 23.2542 50.7992ZM23.2542 72.205C25.4919 72.205 27.4099 70.288 27.4099 68.0516C27.4099 65.8152 25.4919 63.8983 23.2542 63.8983C21.0165 63.8983 19.0984 65.8152 19.0984 68.0516C18.7788 70.288 20.6968 72.205 23.2542 72.205ZM23.2542 93.6107C25.4919 93.6107 27.4099 91.6938 27.4099 89.4574C27.4099 87.2209 25.4919 85.304 23.2542 85.304C21.0165 85.304 19.0984 87.2209 19.0984 89.4574C18.7788 91.6938 20.6968 93.6107 23.2542 93.6107ZM23.2542 114.697C25.4919 114.697 27.4099 112.78 27.4099 110.544C27.4099 108.307 25.4919 106.39 23.2542 106.39C21.0165 106.39 19.0984 108.307 19.0984 110.544C18.7788 113.1 20.6968 114.697 23.2542 114.697ZM23.2542 136.103C25.4919 136.103 27.4099 134.186 27.4099 131.949C27.4099 129.713 25.4919 127.796 23.2542 127.796C21.0165 127.796 19.0984 129.713 19.0984 131.949C18.7788 134.186 20.6968 136.103 23.2542 136.103ZM23.2542 157.508C25.4919 157.508 27.4099 155.592 27.4099 153.355C27.4099 151.119 25.4919 149.202 23.2542 149.202C21.0165 149.202 19.0984 151.119 19.0984 153.355C18.7788 155.592 20.6968 157.508 23.2542 157.508ZM23.2542 178.595C25.4919 178.595 27.4099 176.678 27.4099 174.441C27.4099 172.205 25.4919 170.288 23.2542 170.288C21.0165 170.288 19.0984 172.205 19.0984 174.441C18.7788 176.997 20.6968 178.595 23.2542 178.595Z" fill="#34A853"/>
<path d="M2.15579 8.30671C4.39349 8.30671 6.31152 6.38978 6.31152 4.15335C6.31152 1.91693 4.39349 0 2.15579 0C-0.0819106 0 -1.99994 1.91693 -1.99994 4.15335C-1.99994 6.38978 -0.0819106 8.30671 2.15579 8.30671ZM2.15579 29.7125C4.39349 29.7125 6.31152 27.7955 6.31152 25.5591C6.31152 23.3227 4.39349 21.4058 2.15579 21.4058C-0.0819106 21.4058 -1.99994 23.3227 -1.99994 25.5591C-1.99994 27.7955 -0.0819106 29.7125 2.15579 29.7125ZM2.15579 50.7987C4.39349 50.7987 6.31152 48.8818 6.31152 46.6454C6.31152 44.409 4.39349 42.492 2.15579 42.492C-0.0819106 42.492 -1.99994 44.409 -1.99994 46.6454C-1.99994 49.2013 -0.0819106 50.7987 2.15579 50.7987ZM2.15579 72.2045C4.39349 72.2045 6.31152 70.2875 6.31152 68.0511C6.31152 65.8147 4.39349 63.8978 2.15579 63.8978C-0.0819106 63.8978 -1.99994 65.8147 -1.99994 68.0511C-1.99994 70.2875 -0.0819106 72.2045 2.15579 72.2045ZM2.15579 93.6102C4.39349 93.6102 6.31152 91.6933 6.31152 89.4569C6.31152 87.2205 4.39349 85.3035 2.15579 85.3035C-0.0819106 85.3035 -1.99994 87.2205 -1.99994 89.4569C-1.99994 91.6933 -0.0819106 93.6102 2.15579 93.6102ZM2.15579 114.696C4.39349 114.696 6.31152 112.78 6.31152 110.543C6.31152 108.307 4.39349 106.39 2.15579 106.39C-0.0819106 106.39 -1.99994 108.307 -1.99994 110.543C-1.99994 113.099 -0.0819106 114.696 2.15579 114.696ZM2.15579 136.102C4.39349 136.102 6.31152 134.185 6.31152 131.949C6.31152 129.712 4.39349 127.796 2.15579 127.796C-0.0819106 127.796 -1.99994 129.712 -1.99994 131.949C-1.99994 134.185 -0.0819106 136.102 2.15579 136.102ZM2.15579 157.508C4.39349 157.508 6.31152 155.591 6.31152 153.355C6.31152 151.118 4.39349 149.201 2.15579 149.201C-0.0819106 149.201 -1.99994 151.118 -1.99994 153.355C-1.99994 155.591 -0.0819106 157.508 2.15579 157.508ZM2.15579 178.594C4.39349 178.594 6.31152 176.677 6.31152 174.441C6.31152 172.204 4.39349 170.288 2.15579 170.288C-0.0819106 170.288 -1.99994 172.204 -1.99994 174.441C-1.99994 176.997 -0.0819106 178.594 2.15579 178.594ZM2.15579 200C4.39349 200 6.31152 198.083 6.31152 195.847C6.31152 193.61 4.39349 191.693 2.15579 191.693C-0.0819106 191.693 -1.99994 193.61 -1.99994 195.847C-1.99994 198.083 -0.0819106 200 2.15579 200Z" fill="#34A853"/>
<path d="M110.844 104.153C113.082 104.153 115 102.236 115 100C115 97.7636 113.082 95.8467 110.844 95.8467C108.607 95.8467 106.689 97.7636 106.689 100C106.689 102.236 108.607 104.153 110.844 104.153Z" fill="#34A853"/>
</svg>
