<svg width="174" height="191" viewBox="0 0 174 191" fill="none" xmlns="http://www.w3.org/2000/svg">
<path d="M82.6372 53.7832C63.0706 59.7559 53.4107 81.9366 61.0611 103.325C68.7115 124.714 90.7752 137.211 110.342 131.238C129.908 125.266 139.568 103.085 131.918 81.6963C124.267 60.3077 102.204 47.8106 82.6372 53.7832Z" fill="#FBBC04" fill-opacity="0.75"/>
<path d="M81.3423 190.369L1.00001 54.0775" stroke="#010101" stroke-opacity="0.41" stroke-width="1.36" stroke-miterlimit="10"/>
<path d="M84.4381 188.545L4.09582 52.2533" stroke="#010101" stroke-opacity="0.41" stroke-width="1.36" stroke-miterlimit="10"/>
<path d="M87.5336 186.721L7.19127 50.4291" stroke="#010101" stroke-opacity="0.41" stroke-width="1.36" stroke-miterlimit="10"/>
<path d="M90.6368 184.892L10.2946 48.6" stroke="#010101" stroke-opacity="0.41" stroke-width="1.36" stroke-miterlimit="10"/>
<path d="M93.7322 183.066L13.3899 46.7748" stroke="#010101" stroke-opacity="0.41" stroke-width="1.36" stroke-miterlimit="10"/>
<path d="M96.8276 181.241L16.4854 44.9496" stroke="#010101" stroke-opacity="0.41" stroke-width="1.36" stroke-miterlimit="10"/>
<path d="M99.9309 179.412L19.5886 43.1205" stroke="#010101" stroke-opacity="0.41" stroke-width="1.36" stroke-miterlimit="10"/>
<path d="M103.026 177.588L22.6841 41.2963" stroke="#010101" stroke-opacity="0.41" stroke-width="1.36" stroke-miterlimit="10"/>
<path d="M106.122 175.763L25.7795 39.4711" stroke="#010101" stroke-opacity="0.41" stroke-width="1.36" stroke-miterlimit="10"/>
<path d="M109.225 173.934L28.8828 37.642" stroke="#010101" stroke-opacity="0.41" stroke-width="1.36" stroke-miterlimit="10"/>
<path d="M112.32 172.108L31.9781 35.8168" stroke="#010101" stroke-opacity="0.41" stroke-width="1.36" stroke-miterlimit="10"/>
<path d="M115.416 170.284L35.0736 33.9926" stroke="#010101" stroke-opacity="0.41" stroke-width="1.36" stroke-miterlimit="10"/>
<path d="M118.519 168.455L38.1767 32.1635" stroke="#010101" stroke-opacity="0.41" stroke-width="1.36" stroke-miterlimit="10"/>
<path d="M121.615 166.631L41.2723 30.3393" stroke="#010101" stroke-opacity="0.41" stroke-width="1.36" stroke-miterlimit="10"/>
<path d="M124.71 164.806L44.3677 28.514" stroke="#010101" stroke-opacity="0.41" stroke-width="1.36" stroke-miterlimit="10"/>
<path d="M127.805 162.98L47.4631 26.6888" stroke="#010101" stroke-opacity="0.41" stroke-width="1.36" stroke-miterlimit="10"/>
<path d="M130.909 161.151L50.5663 24.8597" stroke="#010101" stroke-opacity="0.41" stroke-width="1.36" stroke-miterlimit="10"/>
<path d="M134.004 159.327L53.6617 23.0355" stroke="#010101" stroke-opacity="0.41" stroke-width="1.36" stroke-miterlimit="10"/>
<path d="M137.1 157.502L56.7573 21.2103" stroke="#010101" stroke-opacity="0.41" stroke-width="1.36" stroke-miterlimit="10"/>
<path d="M140.203 155.673L59.8605 19.3812" stroke="#010101" stroke-opacity="0.41" stroke-width="1.36" stroke-miterlimit="10"/>
<path d="M143.298 153.848L62.9559 17.556" stroke="#010101" stroke-opacity="0.41" stroke-width="1.36" stroke-miterlimit="10"/>
<path d="M146.394 152.022L66.0513 15.7309" stroke="#010101" stroke-opacity="0.41" stroke-width="1.36" stroke-miterlimit="10"/>
</svg>
