<svg width="175" height="113" viewBox="0 0 175 113" fill="none" xmlns="http://www.w3.org/2000/svg">
<g clip-path="url(#clip0)">
<path d="M70.2328 26.7939H0V97.0792H70.2328V26.7939Z" fill="#FBBC04" fill-opacity="0.75"/>
<path d="M118.348 113C87.306 113 61.6963 87.7591 61.6963 56.3055C61.6963 25.2402 86.918 -0.388672 118.348 -0.388672C149.39 -0.388672 175 24.8519 175 56.3055C175 87.7591 149.39 113 118.348 113ZM118.348 3.88281C89.2462 3.88281 65.5766 27.5701 65.5766 56.6938C65.5766 85.8175 89.2462 109.505 118.348 109.505C147.45 109.505 171.12 85.8175 171.12 56.6938C171.12 27.5701 147.45 3.88281 118.348 3.88281Z" fill="#FBBC04" fill-opacity="0.75"/>
<path d="M26.3857 50.092L65.9645 89.7002L105.543 50.092L65.9645 10.8721L26.3857 50.092ZM93.1263 50.092L65.9645 77.2741L38.8026 50.092L65.9645 22.9099L93.1263 50.092Z" fill="#1A1A1A"/>
</g>
<defs>
<clipPath id="clip0">
<rect width="175" height="113" fill="white"/>
</clipPath>
</defs>
</svg>
