<svg width="115" height="152" viewBox="0 0 115 152" fill="none" xmlns="http://www.w3.org/2000/svg">
<path d="M0 0V56.4388H56.3788V0H0ZM47.4095 47.4599H8.64902V8.65823H47.4095V47.4599Z" fill="#1A1A1A"/>
<path d="M88.7326 152C74.3176 152 62.4652 140.135 62.4652 125.705C62.4652 111.274 74.3176 99.4092 88.7326 99.4092C103.148 99.4092 115 111.274 115 125.705C115 140.135 103.148 152 88.7326 152ZM88.7326 102.616C75.9193 102.616 65.6686 112.878 65.6686 125.705C65.6686 138.532 75.9193 148.793 88.7326 148.793C101.546 148.793 111.797 138.532 111.797 125.705C111.797 112.878 101.546 102.616 88.7326 102.616Z" fill="#1A1A1A"/>
<path d="M60.2228 127.628C34.596 127.628 13.454 106.784 13.454 80.8098C13.454 55.1558 34.2757 33.9912 60.2228 33.9912C85.8495 33.9912 106.992 54.8351 106.992 80.8098C106.671 106.784 85.8495 127.628 60.2228 127.628ZM60.2228 37.5186C36.1977 37.5186 16.6573 57.0798 16.6573 81.1304C16.6573 105.181 36.1977 124.742 60.2228 124.742C84.2478 124.742 103.788 105.181 103.788 81.1304C103.468 57.0798 83.9275 37.5186 60.2228 37.5186Z" fill="#EA4436" fill-opacity="0.87"/>
<path d="M18.8997 93.9578C18.8997 96.2026 16.9777 98.1266 14.7354 98.1266C12.4931 98.1266 10.571 96.2026 10.571 93.9578C10.571 91.7131 12.4931 89.7891 14.7354 89.7891C16.9777 89.7891 18.8997 91.7131 18.8997 93.9578Z" fill="#FFAE0A"/>
</svg>
